<mxfile host="65bd71144e">
    <diagram id="ukJqmPEc_U4y9eFFN8ik" name="Page-1">
        <mxGraphModel dx="2005" dy="787" grid="1" gridSize="10" guides="1" tooltips="1" connect="1" arrows="1" fold="1" page="1" pageScale="1" pageWidth="850" pageHeight="1100" math="0" shadow="0">
            <root>
                <mxCell id="0"/>
                <mxCell id="1" parent="0"/>
                <mxCell id="56" value="" style="rounded=0;whiteSpace=wrap;html=1;fillColor=#FFFFFF;strokeColor=#000000;" vertex="1" parent="1">
                    <mxGeometry x="-190" y="500" width="1060" height="640" as="geometry"/>
                </mxCell>
                <mxCell id="69" value="Hệ thống quản lý dự án" style="rounded=0;whiteSpace=wrap;html=1;fillColor=#FFFFFF;fontColor=#000000;strokeColor=#000000;" vertex="1" parent="1">
                    <mxGeometry x="290" y="790" width="100" height="60" as="geometry"/>
                </mxCell>
                <mxCell id="72" value="Quản lý &lt;br&gt;người dùng" style="ellipse;whiteSpace=wrap;html=1;fillColor=#FFFFFF;fontColor=#000000;strokeColor=#000000;" vertex="1" parent="1">
                    <mxGeometry x="510" y="880" width="100" height="60" as="geometry"/>
                </mxCell>
                <mxCell id="66" style="edgeStyle=none;html=1;entryX=0;entryY=0.5;entryDx=0;entryDy=0;startArrow=none;startFill=0;endArrow=block;endFill=1;strokeColor=#000000;" edge="1" parent="1" source="69" target="72">
                    <mxGeometry relative="1" as="geometry"/>
                </mxCell>
                <mxCell id="73" value="Quản lý &lt;br&gt;phòng ban" style="ellipse;whiteSpace=wrap;html=1;fillColor=#FFFFFF;fontColor=#000000;strokeColor=#000000;" vertex="1" parent="1">
                    <mxGeometry x="660" y="790" width="100" height="60" as="geometry"/>
                </mxCell>
                <mxCell id="67" style="edgeStyle=none;html=1;entryX=0;entryY=0.5;entryDx=0;entryDy=0;endArrow=block;endFill=1;startArrow=none;startFill=0;strokeColor=#000000;" edge="1" parent="1" source="69" target="73">
                    <mxGeometry relative="1" as="geometry"/>
                </mxCell>
                <mxCell id="68" value="Quản lý" style="edgeLabel;html=1;align=center;verticalAlign=middle;resizable=0;points=[];fontColor=#000000;labelBackgroundColor=#FFFFFF;" vertex="1" connectable="0" parent="67">
                    <mxGeometry x="-0.363" y="-1" relative="1" as="geometry">
                        <mxPoint as="offset"/>
                    </mxGeometry>
                </mxCell>
                <mxCell id="70" style="edgeStyle=none;html=1;entryX=0;entryY=1;entryDx=0;entryDy=0;strokeColor=#000000;" edge="1" parent="1" source="72" target="73">
                    <mxGeometry relative="1" as="geometry"/>
                </mxCell>
                <mxCell id="71" value="Truy xuất thông tin" style="edgeLabel;html=1;align=center;verticalAlign=middle;resizable=0;points=[];fontColor=#000000;labelBackgroundColor=#FFFFFF;" vertex="1" connectable="0" parent="70">
                    <mxGeometry x="0.326" y="-2" relative="1" as="geometry">
                        <mxPoint as="offset"/>
                    </mxGeometry>
                </mxCell>
                <mxCell id="77" value="Quản lý&lt;br&gt;milestones" style="ellipse;whiteSpace=wrap;html=1;fillColor=#FFFFFF;fontColor=#000000;strokeColor=#000000;" vertex="1" parent="1">
                    <mxGeometry x="90" y="580" width="100" height="60" as="geometry"/>
                </mxCell>
                <mxCell id="62" style="edgeStyle=none;html=1;entryX=1;entryY=1;entryDx=0;entryDy=0;endArrow=block;endFill=1;startArrow=none;startFill=0;strokeColor=#000000;" edge="1" parent="1" source="69" target="77">
                    <mxGeometry relative="1" as="geometry"/>
                </mxCell>
                <mxCell id="63" value="Quản lý" style="edgeLabel;html=1;align=center;verticalAlign=middle;resizable=0;points=[];fontColor=#000000;labelBackgroundColor=#FFFFFF;" vertex="1" connectable="0" parent="62">
                    <mxGeometry x="0.2572" relative="1" as="geometry">
                        <mxPoint y="-1" as="offset"/>
                    </mxGeometry>
                </mxCell>
                <mxCell id="78" style="edgeStyle=none;html=1;entryX=0;entryY=0;entryDx=0;entryDy=0;startArrow=block;startFill=1;endArrow=block;endFill=1;strokeColor=#000000;" edge="1" parent="1" source="82" target="73">
                    <mxGeometry relative="1" as="geometry"/>
                </mxCell>
                <mxCell id="79" value="Truy cập" style="edgeLabel;html=1;align=center;verticalAlign=middle;resizable=0;points=[];fontColor=#000000;labelBackgroundColor=#FFFFFF;" vertex="1" connectable="0" parent="78">
                    <mxGeometry x="-0.3615" y="3" relative="1" as="geometry">
                        <mxPoint as="offset"/>
                    </mxGeometry>
                </mxCell>
                <mxCell id="80" style="edgeStyle=none;html=1;entryX=0.5;entryY=0;entryDx=0;entryDy=0;strokeColor=#000000;" edge="1" parent="1" source="82" target="72">
                    <mxGeometry relative="1" as="geometry"/>
                </mxCell>
                <mxCell id="81" value="Truy xuất thông tin" style="edgeLabel;html=1;align=center;verticalAlign=middle;resizable=0;points=[];fontColor=#000000;labelBackgroundColor=#FFFFFF;" vertex="1" connectable="0" parent="80">
                    <mxGeometry x="0.3349" y="-1" relative="1" as="geometry">
                        <mxPoint y="1" as="offset"/>
                    </mxGeometry>
                </mxCell>
                <mxCell id="82" value="Quản lý &lt;br&gt;dự án" style="ellipse;whiteSpace=wrap;html=1;fillColor=#FFFFFF;fontColor=#000000;strokeColor=#000000;" vertex="1" parent="1">
                    <mxGeometry x="350" y="570" width="100" height="60" as="geometry"/>
                </mxCell>
                <mxCell id="64" style="edgeStyle=none;html=1;entryX=0.5;entryY=1;entryDx=0;entryDy=0;startArrow=none;startFill=0;endArrow=block;endFill=1;strokeColor=#000000;" edge="1" parent="1" source="69" target="82">
                    <mxGeometry relative="1" as="geometry"/>
                </mxCell>
                <mxCell id="65" value="Quản lý" style="edgeLabel;html=1;align=center;verticalAlign=middle;resizable=0;points=[];fontColor=#000000;labelBackgroundColor=#FFFFFF;" vertex="1" connectable="0" parent="64">
                    <mxGeometry x="-0.2372" y="-3" relative="1" as="geometry">
                        <mxPoint as="offset"/>
                    </mxGeometry>
                </mxCell>
                <mxCell id="74" style="edgeStyle=none;html=1;entryX=0;entryY=0.5;entryDx=0;entryDy=0;startArrow=block;startFill=1;endArrow=block;endFill=1;exitX=1;exitY=0.5;exitDx=0;exitDy=0;strokeColor=#000000;" edge="1" parent="1" source="77" target="82">
                    <mxGeometry relative="1" as="geometry"/>
                </mxCell>
                <mxCell id="75" value="Truy cập" style="edgeLabel;html=1;align=center;verticalAlign=middle;resizable=0;points=[];fontColor=#000000;labelBackgroundColor=#FFFFFF;" vertex="1" connectable="0" parent="74">
                    <mxGeometry x="0.2322" relative="1" as="geometry">
                        <mxPoint as="offset"/>
                    </mxGeometry>
                </mxCell>
                <mxCell id="83" style="edgeStyle=none;html=1;exitX=1;exitY=0;exitDx=0;exitDy=0;entryX=0;entryY=1;entryDx=0;entryDy=0;startArrow=block;startFill=1;endArrow=block;endFill=1;strokeColor=#000000;" edge="1" parent="1" source="85" target="82">
                    <mxGeometry relative="1" as="geometry"/>
                </mxCell>
                <mxCell id="84" value="Truy cập" style="edgeLabel;html=1;align=center;verticalAlign=middle;resizable=0;points=[];fontColor=#000000;labelBackgroundColor=#FFFFFF;" vertex="1" connectable="0" parent="83">
                    <mxGeometry x="0.1705" y="-2" relative="1" as="geometry">
                        <mxPoint as="offset"/>
                    </mxGeometry>
                </mxCell>
                <mxCell id="85" value="Quản lý&lt;br&gt;releases" style="ellipse;whiteSpace=wrap;html=1;fillColor=#FFFFFF;fontColor=#000000;strokeColor=#000000;" vertex="1" parent="1">
                    <mxGeometry x="80" y="790" width="100" height="60" as="geometry"/>
                </mxCell>
                <mxCell id="61" value="&lt;span style=&quot;font-family: Helvetica; font-size: 11px; font-style: normal; font-variant-ligatures: normal; font-variant-caps: normal; font-weight: 400; letter-spacing: normal; orphans: 2; text-align: center; text-indent: 0px; text-transform: none; widows: 2; word-spacing: 0px; -webkit-text-stroke-width: 0px; text-decoration-thickness: initial; text-decoration-style: initial; text-decoration-color: initial; float: none; display: inline !important;&quot;&gt;Quản lý&lt;/span&gt;" style="edgeStyle=none;html=1;entryX=1;entryY=0.5;entryDx=0;entryDy=0;endArrow=block;endFill=1;startArrow=none;startFill=0;strokeColor=#000000;fontColor=#000000;labelBackgroundColor=#FFFFFF;" edge="1" parent="1" source="69" target="85">
                    <mxGeometry relative="1" as="geometry"/>
                </mxCell>
                <mxCell id="86" style="edgeStyle=none;html=1;startArrow=block;startFill=1;endArrow=block;endFill=1;exitX=0;exitY=0.5;exitDx=0;exitDy=0;entryX=1;entryY=0.5;entryDx=0;entryDy=0;strokeColor=#000000;" edge="1" parent="1" source="88" target="82">
                    <mxGeometry relative="1" as="geometry"/>
                </mxCell>
                <mxCell id="87" value="Truy cập" style="edgeLabel;html=1;align=center;verticalAlign=middle;resizable=0;points=[];fontColor=#000000;labelBackgroundColor=#FFFFFF;" vertex="1" connectable="0" parent="86">
                    <mxGeometry x="0.3274" y="1" relative="1" as="geometry">
                        <mxPoint as="offset"/>
                    </mxGeometry>
                </mxCell>
                <mxCell id="88" value="Quản lý&lt;br&gt;issues" style="ellipse;whiteSpace=wrap;html=1;fillColor=#FFFFFF;fontColor=#000000;strokeColor=#000000;" vertex="1" parent="1">
                    <mxGeometry x="640" y="630" width="100" height="60" as="geometry"/>
                </mxCell>
                <mxCell id="59" style="edgeStyle=none;html=1;entryX=0;entryY=1;entryDx=0;entryDy=0;endArrow=block;endFill=1;startArrow=none;startFill=0;strokeColor=#000000;" edge="1" parent="1" source="69" target="88">
                    <mxGeometry relative="1" as="geometry"/>
                </mxCell>
                <mxCell id="60" value="Quản lý" style="edgeLabel;html=1;align=center;verticalAlign=middle;resizable=0;points=[];fontColor=#000000;labelBackgroundColor=#FFFFFF;" vertex="1" connectable="0" parent="59">
                    <mxGeometry x="-0.1837" y="3" relative="1" as="geometry">
                        <mxPoint as="offset"/>
                    </mxGeometry>
                </mxCell>
                <mxCell id="89" value="Báo cáo&lt;br&gt;thống kê" style="ellipse;whiteSpace=wrap;html=1;fillColor=#FFFFFF;fontColor=#000000;strokeColor=#000000;" vertex="1" parent="1">
                    <mxGeometry x="170" y="950" width="100" height="60" as="geometry"/>
                </mxCell>
                <mxCell id="57" style="edgeStyle=none;html=1;endArrow=block;endFill=1;startArrow=none;startFill=0;strokeColor=#000000;" edge="1" parent="1" source="69" target="89">
                    <mxGeometry relative="1" as="geometry"/>
                </mxCell>
                <mxCell id="58" value="Xem báo cáo" style="edgeLabel;html=1;align=center;verticalAlign=middle;resizable=0;points=[];fontColor=#000000;labelBackgroundColor=#FFFFFF;" vertex="1" connectable="0" parent="57">
                    <mxGeometry x="-0.3843" y="4" relative="1" as="geometry">
                        <mxPoint as="offset"/>
                    </mxGeometry>
                </mxCell>
                <mxCell id="90" value="Cơ sở&lt;br&gt;dữ liệu" style="shape=cylinder3;whiteSpace=wrap;html=1;boundedLbl=1;backgroundOutline=1;size=15;fillColor=#FFFFFF;fontColor=#000000;strokeColor=#000000;" vertex="1" parent="1">
                    <mxGeometry x="-130" y="660" width="90" height="130" as="geometry"/>
                </mxCell>
                <mxCell id="91" style="edgeStyle=none;html=1;entryX=0.689;entryY=1.015;entryDx=0;entryDy=0;entryPerimeter=0;startArrow=block;startFill=1;endArrow=block;endFill=1;exitX=0;exitY=0.5;exitDx=0;exitDy=0;strokeColor=#000000;" edge="1" parent="1" source="85" target="90">
                    <mxGeometry relative="1" as="geometry">
                        <mxPoint x="129.24841006530778" y="683.6550691805323" as="sourcePoint"/>
                        <mxPoint x="-35" y="810" as="targetPoint"/>
                        <Array as="points">
                            <mxPoint x="-68" y="820"/>
                        </Array>
                    </mxGeometry>
                </mxCell>
                <mxCell id="92" value="Lưu trữ và truy xuất" style="edgeLabel;html=1;align=center;verticalAlign=middle;resizable=0;points=[];fontColor=#000000;labelBackgroundColor=#FFFFFF;" vertex="1" connectable="0" parent="91">
                    <mxGeometry x="0.3" relative="1" as="geometry">
                        <mxPoint as="offset"/>
                    </mxGeometry>
                </mxCell>
                <mxCell id="93" style="edgeStyle=none;html=1;entryX=0.433;entryY=1.015;entryDx=0;entryDy=0;entryPerimeter=0;startArrow=block;startFill=1;endArrow=block;endFill=1;exitX=0;exitY=1;exitDx=0;exitDy=0;strokeColor=#000000;" edge="1" parent="1" source="72" target="90">
                    <mxGeometry relative="1" as="geometry">
                        <mxPoint x="80" y="840" as="sourcePoint"/>
                        <mxPoint x="10" y="850" as="targetPoint"/>
                        <Array as="points">
                            <mxPoint x="-90" y="930"/>
                        </Array>
                    </mxGeometry>
                </mxCell>
                <mxCell id="94" value="Lưu trữ và truy xuất" style="edgeLabel;html=1;align=center;verticalAlign=middle;resizable=0;points=[];fontColor=#000000;labelBackgroundColor=#FFFFFF;" vertex="1" connectable="0" parent="93">
                    <mxGeometry x="0.4727" y="1" relative="1" as="geometry">
                        <mxPoint as="offset"/>
                    </mxGeometry>
                </mxCell>
                <mxCell id="95" style="edgeStyle=none;html=1;entryX=0.5;entryY=0;entryDx=0;entryDy=0;entryPerimeter=0;startArrow=block;startFill=1;endArrow=block;endFill=1;exitX=0.5;exitY=0;exitDx=0;exitDy=0;strokeColor=#000000;" edge="1" parent="1" source="82" target="90">
                    <mxGeometry relative="1" as="geometry">
                        <mxPoint x="494.64466094067257" y="1001.2132034355961" as="sourcePoint"/>
                        <mxPoint x="10" y="875" as="targetPoint"/>
                        <Array as="points">
                            <mxPoint x="400" y="540"/>
                            <mxPoint x="-85" y="540"/>
                        </Array>
                    </mxGeometry>
                </mxCell>
                <mxCell id="96" value="Lưu trữ và truy xuất" style="edgeLabel;html=1;align=center;verticalAlign=middle;resizable=0;points=[];fontColor=#000000;labelBackgroundColor=#FFFFFF;" vertex="1" connectable="0" parent="95">
                    <mxGeometry x="-0.2157" y="-1" relative="1" as="geometry">
                        <mxPoint as="offset"/>
                    </mxGeometry>
                </mxCell>
                <mxCell id="97" style="edgeStyle=none;html=1;entryX=0.855;entryY=0;entryDx=0;entryDy=4.35;entryPerimeter=0;startArrow=block;startFill=1;endArrow=block;endFill=1;exitX=0.5;exitY=0;exitDx=0;exitDy=0;strokeColor=#000000;" edge="1" parent="1" source="88" target="90">
                    <mxGeometry relative="1" as="geometry">
                        <mxPoint x="390" y="640" as="sourcePoint"/>
                        <mxPoint x="10" y="900" as="targetPoint"/>
                        <Array as="points">
                            <mxPoint x="690" y="520"/>
                            <mxPoint x="-53" y="520"/>
                        </Array>
                    </mxGeometry>
                </mxCell>
                <mxCell id="98" value="Lưu trữ và truy xuất" style="edgeLabel;html=1;align=center;verticalAlign=middle;resizable=0;points=[];fontColor=#000000;labelBackgroundColor=#FFFFFF;" vertex="1" connectable="0" parent="97">
                    <mxGeometry x="0.3456" y="3" relative="1" as="geometry">
                        <mxPoint as="offset"/>
                    </mxGeometry>
                </mxCell>
                <mxCell id="99" style="edgeStyle=none;html=1;entryX=0.145;entryY=1;entryDx=0;entryDy=-4.35;entryPerimeter=0;startArrow=block;startFill=1;endArrow=block;endFill=1;exitX=0.5;exitY=1;exitDx=0;exitDy=0;strokeColor=#000000;" edge="1" parent="1" source="73" target="90">
                    <mxGeometry relative="1" as="geometry">
                        <mxPoint x="584.6446609406726" y="711.2132034355961" as="sourcePoint"/>
                        <mxPoint x="10" y="925" as="targetPoint"/>
                        <Array as="points">
                            <mxPoint x="710" y="1020"/>
                            <mxPoint x="-117" y="1020"/>
                        </Array>
                    </mxGeometry>
                </mxCell>
                <mxCell id="100" value="Lưu trữ và truy xuất" style="edgeLabel;html=1;align=center;verticalAlign=middle;resizable=0;points=[];fontColor=#000000;labelBackgroundColor=#FFFFFF;" vertex="1" connectable="0" parent="99">
                    <mxGeometry x="0.4702" y="-2" relative="1" as="geometry">
                        <mxPoint as="offset"/>
                    </mxGeometry>
                </mxCell>
                <mxCell id="101" style="edgeStyle=none;html=1;startArrow=none;startFill=0;endArrow=block;endFill=1;exitX=0.278;exitY=1.008;exitDx=0;exitDy=0;exitPerimeter=0;entryX=0;entryY=0.5;entryDx=0;entryDy=0;strokeColor=#000000;" edge="1" parent="1" source="90" target="89">
                    <mxGeometry relative="1" as="geometry">
                        <mxPoint x="670" y="800" as="sourcePoint"/>
                        <mxPoint x="90" y="1070" as="targetPoint"/>
                        <Array as="points">
                            <mxPoint x="-105" y="980"/>
                        </Array>
                    </mxGeometry>
                </mxCell>
                <mxCell id="102" value="Truy xuất" style="edgeLabel;html=1;align=center;verticalAlign=middle;resizable=0;points=[];fontColor=#000000;labelBackgroundColor=#FFFFFF;" vertex="1" connectable="0" parent="101">
                    <mxGeometry x="0.2404" y="3" relative="1" as="geometry">
                        <mxPoint as="offset"/>
                    </mxGeometry>
                </mxCell>
                <mxCell id="76" style="edgeStyle=none;html=1;entryX=1;entryY=0;entryDx=0;entryDy=15;entryPerimeter=0;startArrow=block;startFill=1;endArrow=block;endFill=1;strokeColor=#000000;" edge="1" parent="1" source="77" target="90">
                    <mxGeometry relative="1" as="geometry"/>
                </mxCell>
                <mxCell id="103" style="edgeStyle=none;html=1;exitX=0.5;exitY=0;exitDx=0;exitDy=0;entryX=0.41;entryY=1.017;entryDx=0;entryDy=0;startArrow=block;startFill=1;endArrow=block;endFill=1;entryPerimeter=0;strokeColor=#000000;" edge="1" parent="1" source="85" target="77">
                    <mxGeometry relative="1" as="geometry">
                        <mxPoint x="175.35533905932743" y="808.7867965644032" as="sourcePoint"/>
                        <mxPoint x="374.64466094067257" y="631.2132034355961" as="targetPoint"/>
                    </mxGeometry>
                </mxCell>
                <mxCell id="104" value="Truy cập" style="edgeLabel;html=1;align=center;verticalAlign=middle;resizable=0;points=[];fontColor=#000000;labelBackgroundColor=#FFFFFF;" vertex="1" connectable="0" parent="103">
                    <mxGeometry x="0.1705" y="-2" relative="1" as="geometry">
                        <mxPoint as="offset"/>
                    </mxGeometry>
                </mxCell>
            </root>
        </mxGraphModel>
    </diagram>
</mxfile>